<svg version="1.1" viewBox="0 0 1208 256.48" xmlns="http://www.w3.org/2000/svg"><path d="m128.68 192.48q-13.772 0-25.627-4.707-11.68-4.8813-20.571-13.598-8.7167-8.7167-13.598-20.223-4.8814-11.68-4.8814-25.104 0-13.424 4.8814-24.93 4.8814-11.68 13.598-20.223 8.7167-8.5424 20.397-13.249 11.855-4.8813 25.627-4.8813 14.644 0 25.976 4.707 11.506 4.707 20.048 12.901l-18.305 18.479q-4.8814-5.23-11.855-8.1937-6.799-2.9637-15.864-2.9637-8.0194 0-14.818 2.7893-6.6247 2.615-11.506 7.6707-4.707 5.0557-7.4964 12.203-2.615 7.1477-2.615 15.69 0 8.7167 2.615 15.864 2.7893 7.1477 7.4964 12.203 4.8814 5.0557 11.506 7.845 6.799 2.7894 14.818 2.7894 9.414 0 16.387-2.9637 6.9734-2.9637 12.029-8.1937l18.479 18.479q-8.891 8.1937-20.397 12.901-11.332 4.707-26.324 4.707zm92.746-0.17424q-11.68 0-20.92-5.753-9.0654-5.753-14.47-15.69-5.23-9.9371-5.23-22.663t5.23-22.663q5.4044-9.9371 14.47-15.69 9.2397-5.753 20.92-5.753 8.5424 0 15.341 3.3123 6.9734 3.3124 11.332 9.2397 4.3584 5.753 4.8814 13.249v36.61q-0.523 7.4964-4.8814 13.424-4.184 5.753-11.157 9.0654-6.9734 3.3124-15.516 3.3124zm5.4044-24.058q8.5424 0 13.772-5.5787 5.23-5.753 5.23-14.47 0-5.9274-2.4407-10.46-2.2663-4.5327-6.6247-6.9734-4.184-2.615-9.7627-2.615-5.5787 0-9.937 2.615-4.184 2.4407-6.799 6.9734-2.4407 4.5327-2.4407 10.46 0 5.753 2.4407 10.286 2.4407 4.5327 6.799 7.1477 4.3584 2.615 9.7627 2.615zm17.956 22.315v-22.838l4.0097-20.571-4.0097-20.571v-20.746h26.15v84.726zm44.978 0v-126.57h26.673v126.57zm45.501 0v-84.726h26.673v84.726zm54.218 0v-49.511q0-6.4504-4.0097-9.937-3.8354-3.661-9.5884-3.661-4.0097 0-7.1477 1.7433-3.138 1.569-5.0557 4.5327-1.7433 2.9637-1.7433 7.322l-10.286-4.5327q0-10.111 4.3584-17.259 4.3584-7.322 11.855-11.157 7.4964-4.0097 16.91-4.0097 8.891 0 15.864 4.0097 7.1477 4.0097 11.332 11.157 4.184 7.1477 4.184 17.085v54.218zm54.218 0v-49.511q0-6.4504-4.0097-9.937-3.8354-3.661-9.5884-3.661-4.0097 0-7.1477 1.7433-3.138 1.569-5.0557 4.5327-1.7434 2.9637-1.7434 7.322l-15.341-2.092q0.34847-10.809 5.0557-18.479 4.8813-7.845 12.726-12.029 8.0194-4.3584 17.956-4.3584 9.7627 0 17.259 4.184 7.6707 4.0097 12.029 11.68 4.5327 7.4964 4.5327 18.131v52.475zm104.6 1.9177q-13.772 0-25.627-4.707-11.68-4.8813-20.571-13.598-8.7167-8.7167-13.598-20.223-4.8814-11.68-4.8814-25.104 0-13.424 4.8814-24.93 4.8813-11.68 13.598-20.223 8.7167-8.5424 20.397-13.249 11.855-4.8813 25.627-4.8813 14.644 0 25.976 4.707 11.506 4.707 20.048 12.901l-18.305 18.479q-4.8814-5.23-11.855-8.1937-6.799-2.9637-15.864-2.9637-8.0194 0-14.818 2.7893-6.6247 2.615-11.506 7.6707-4.707 5.0557-7.4964 12.203-2.615 7.1477-2.615 15.69 0 8.7167 2.615 15.864 2.7894 7.1477 7.4964 12.203 4.8813 5.0557 11.506 7.845 6.799 2.7894 14.818 2.7894 9.414 0 16.387-2.9637 6.9734-2.9637 12.029-8.1937l18.479 18.479q-8.891 8.1937-20.397 12.901-11.332 4.707-26.324 4.707zm98.15 0q-13.075 0-23.709-5.753-10.46-5.9274-16.562-16.039-6.1017-10.111-6.1017-22.663 0-12.552 6.1017-22.489 6.1017-9.9371 16.562-15.69 10.46-5.9274 23.709-5.9274 13.249 0 23.709 5.753 10.46 5.753 16.562 15.864 6.1017 9.937 6.1017 22.489 0 12.552-6.1017 22.663-6.1017 10.111-16.562 16.039-10.46 5.753-23.709 5.753zm0-24.232q5.753 0 10.111-2.4407 4.3584-2.615 6.6247-7.1477 2.4407-4.707 2.4407-10.634t-2.4407-10.286q-2.4407-4.5327-6.799-6.9734-4.184-2.615-9.937-2.615-5.5787 0-9.9371 2.615-4.3584 2.4407-6.799 6.9734-2.4407 4.5327-2.4407 10.46 0 5.753 2.4407 10.46 2.4407 4.5327 6.799 7.1477 4.3584 2.4407 9.9371 2.4407zm115.58 22.315v-48.291q0-6.6247-4.184-10.634-4.0097-4.184-10.286-4.184-4.3584 0-7.6707 1.9177-3.3123 1.7434-5.23 5.23-1.9176 3.3124-1.9176 7.6707l-10.286-5.0557q0-9.937 4.3584-17.433 4.3584-7.4964 12.029-11.506 7.845-4.184 17.608-4.184 9.414 0 16.562 4.5327 7.322 4.3584 11.506 11.68 4.184 7.322 4.184 16.039v54.218zm-55.961 0v-84.726h26.673v84.726zm155.68 0v-48.291q0-6.6247-4.184-10.634-4.0097-4.184-10.286-4.184-4.3584 0-7.6707 1.9177-3.3123 1.7434-5.23 5.23-1.9176 3.3124-1.9176 7.6707l-10.286-5.0557q0-9.937 4.3584-17.433 4.3583-7.4964 12.029-11.506 7.845-4.184 17.608-4.184 9.414 0 16.562 4.5327 7.322 4.3584 11.506 11.68 4.184 7.322 4.184 16.039v54.218zm-55.961 0v-84.726h26.673v84.726zm141.56 1.9177q-13.772 0-24.581-5.5787-10.634-5.753-16.736-15.864-6.1017-10.111-6.1017-22.838t5.9274-22.663q6.1017-10.111 16.387-15.864 10.286-5.753 23.186-5.753 12.552 0 22.14 5.4044 9.5884 5.4044 14.993 14.993 5.5787 9.5884 5.5787 21.966 0 2.2664-0.34885 4.8813-0.17424 2.4407-0.87167 5.753l-73.046 0.17423v-18.305l61.714-0.17424-11.506 7.6707q-0.17423-7.322-2.2664-12.029-2.092-4.8813-6.276-7.322-4.0097-2.615-9.937-2.615-6.2761 0-10.983 2.9637-4.5327 2.7893-7.1477 8.0194-2.4407 5.23-2.4407 12.726 0 7.4964 2.615 12.901 2.7893 5.23 7.6707 8.1937 5.0557 2.7894 11.855 2.7894 6.276 0 11.332-2.092 5.0557-2.2664 8.891-6.6247l14.644 14.644q-6.276 7.322-15.167 10.983-8.8911 3.661-19.525 3.661zm94.664 0q-13.075 0-23.71-5.753-10.634-5.753-16.736-15.864-6.1016-10.111-6.1016-22.663 0-12.726 6.1016-22.663 6.2761-10.111 16.91-15.864 10.634-5.753 23.884-5.753 9.9371 0 18.131 3.4867 8.368 3.3124 14.818 10.111l-17.085 17.085q-2.9637-3.3123-6.9733-4.8813-3.8354-1.569-8.8911-1.569-5.753 0-10.286 2.615-4.3583 2.4407-6.9733 6.9734-2.4407 4.3584-2.4407 10.286t2.4407 10.46q2.615 4.5327 7.1476 7.1477 4.5328 2.615 10.111 2.615 5.23 0 9.2397-1.7434 4.1841-1.9177 7.1477-5.23l16.91 17.085q-6.6246 6.9734-14.993 10.634-8.368 3.4867-18.654 3.4867zm56.136-1.9177v-119.77h26.673v119.77zm-19.177-62.063v-22.663h65.027v22.663z" fill="#008080"/></svg>
